<svg xmlns="http://www.w3.org/2000/svg"  viewBox="0 0 24 24" width="24px" height="24px"><path d="M 8.3164062 4.0039062 C 7.4484062 4.0039062 6.1811406 4.3226094 5.2441406 4.5996094 C 4.3771406 4.8556094 3.6552344 5.4479531 3.2402344 6.2519531 C 2.4062344 7.8649531 1.166625 11.064 1.015625 16 C 0.995625 16.67 1.2953594 17.314375 1.8183594 17.734375 C 2.8833594 18.589375 4.5907656 19.659375 7.0097656 19.984375 C 7.0847656 19.995375 7.1603281 20 7.2363281 20 C 7.7603281 20 8.2630781 19.758031 8.5800781 19.332031 L 9 18.65625 C 9 18.65625 9.6397256 18.788706 10.429688 18.894531 C 10.541417 18.911292 10.648922 18.924036 10.759766 18.9375 C 11.056126 18.97114 11.351044 18.987817 11.654297 19 C 11.767628 19.004145 11.889269 19.025391 12 19.025391 C 12.096951 19.025391 12.203764 19.007083 12.302734 19.003906 C 12.630246 18.992708 12.951061 18.970347 13.271484 18.933594 C 13.363432 18.922189 13.452367 18.912102 13.544922 18.898438 C 14.353384 18.791946 15.013672 18.65625 15.013672 18.65625 L 15.433594 19.330078 C 15.751594 19.757078 16.253344 20 16.777344 20 C 16.853344 20 16.929859 19.994375 17.005859 19.984375 C 19.423859 19.659375 21.130313 18.589375 22.195312 17.734375 C 22.718312 17.314375 23.02 16.671953 23 16.001953 C 22.85 11.065953 21.607437 7.8659531 20.773438 6.2519531 C 20.358438 5.4489531 19.638484 4.8556094 18.771484 4.5996094 C 17.832484 4.3216094 16.565266 4.0039062 15.697266 4.0039062 C 15.443266 4.0039062 15.223641 4.0317031 15.056641 4.0957031 C 14.316641 4.3757031 14.001953 5.1445313 14.001953 5.1445312 C 14.001953 5.1445312 12.686625 4.9882813 12.015625 4.9882812 L 12 4.9882812 C 11.329 4.9882812 10.013672 5.1445312 10.013672 5.1445312 C 10.013672 5.1445312 9.6970313 4.37475 8.9570312 4.09375 C 8.7890312 4.03075 8.5704063 4.0039062 8.3164062 4.0039062 z M 16.078125 6.5351562 C 16.504125 6.5921563 17.168547 6.7320938 18.060547 6.9960938 C 18.275547 7.0600938 18.451734 7.2043906 18.552734 7.4003906 C 19.211734 8.6753906 20.331141 11.461578 20.494141 15.892578 C 19.726344 16.485075 18.89583 16.921275 18.013672 17.203125 C 18.27965 16.824375 18.334777 16.317102 18.095703 15.884766 C 17.761703 15.279766 17.001484 15.061484 16.396484 15.396484 C 15.645882 15.811601 14.492385 16.225151 13.289062 16.416016 C 13.222499 16.424987 13.154044 16.433155 13.085938 16.441406 C 12.790451 16.481622 12.495512 16.503572 12.201172 16.511719 C 12.135351 16.513826 12.06302 16.521484 12 16.521484 C 11.939007 16.521484 11.868543 16.513764 11.804688 16.511719 C 11.519273 16.503878 11.231936 16.481562 10.945312 16.443359 C 10.862813 16.433416 10.779534 16.425069 10.699219 16.414062 C 9.5011248 16.221632 8.3539424 15.808065 7.6054688 15.394531 C 7.0014687 15.059531 6.24025 15.278812 5.90625 15.882812 C 5.6678945 16.313851 5.7227688 16.818564 5.9863281 17.197266 C 5.1098456 16.915404 4.2829089 16.481665 3.5195312 15.892578 C 3.6825312 11.462578 4.8038906 8.6753906 5.4628906 7.4003906 C 5.5638906 7.2043906 5.738125 7.0600938 5.953125 6.9960938 C 6.837125 6.7350937 7.4985 6.5951094 7.9375 6.5371094 C 8.3985 7.2241094 9.1757187 7.6425781 10.011719 7.6425781 C 10.108719 7.6425781 10.206688 7.6379531 10.304688 7.6269531 C 10.791688 7.5699531 11.639672 7.4882813 12.013672 7.4882812 C 12.373672 7.4882812 13.221984 7.5699531 13.708984 7.6269531 C 13.806984 7.6389531 13.904953 7.6425781 14.001953 7.6425781 C 14.838953 7.6425781 15.618125 7.2231562 16.078125 6.5351562 z M 8.5 10 A 1.5 2 0 0 0 8.5 14 A 1.5 2 0 0 0 8.5 10 z M 15.5 10 A 1.5 2 0 0 0 15.5 14 A 1.5 2 0 0 0 15.5 10 z"/></svg>